# xmcd CD database file
#
# Track frame offsets:
#	150
#	15850
#	28125
#	42630
#	54915
#	67770
#	83055
#	90827
#	103165
#	114682
#	129517
#	142050
#	153772
#	167632
#	180707
#	192040
#	204527
#	216097
#	229390
#	239747
#
# Disc length: 3324 seconds
#
# Revision: 0
# Processed by: cddbd v1.5.2PL0 Copyright (c) Steve Scherf et al.
# Submitted via: CDex 1.60beta1-cs1
#
DISCID=0d0cfa14
DTITLE=Various Artist - Country Classics Vol 3
DYEAR=1999
DGENRE=Country
TTITLE0=Cal Smith - Country Bumpkin
TTITLE1=Merle Haggard - Okie from Muskogee
TTITLE2=Loretta Lynn - Coalminer's Daughter
TTITLE3=Jack Blanchard and Misty Morgan - Tennessee Bird Walk
TTITLE4=Claude King - Wolverton Mountain
TTITLE5=Billy Jo Spears - Blanket on the Ground
TTITLE6=Roger Miller - Dang Me
TTITLE7=Sandy Posey - Single Girl
TTITLE8=Patsy Cline - Walkin After Midnight
TTITLE9=Jeannie C Riley - Harper Valley PTA
TTITLE10=Wanda Jackson - Crazy
TTITLE11=Ned Miller - Do What You Do Do Well
TTITLE12=George Jones - A Good Year For The Roses
TTITLE13=Bobby Helms - My Special Angel
TTITLE14=Don Gibson - Sea of Heartbreak
TTITLE15=Kenny Rogers and the First Edition - Reuben James
TTITLE16=Freddy Fender - Before the Next Teardrop Falls
TTITLE17=BJ Thomas - Mamma
TTITLE18=George Hamilton IV - Abilene
TTITLE19=Dave Dudley - Six Days on the Road
EXTD=YEAR: 1999
EXTT0=
EXTT1=
EXTT2=
EXTT3=
EXTT4=
EXTT5=
EXTT6=
EXTT7=
EXTT8=
EXTT9=
EXTT10=
EXTT11=
EXTT12=
EXTT13=
EXTT14=
EXTT15=
EXTT16=
EXTT17=
EXTT18=
EXTT19=
PLAYORDER=
